Coordinates
version=1
nRows=15
nColumns=46
inDegrees=yes

Units are S.I. units (second, meters, Newtons, ...)
Angles are in degrees.

endheader
time	pelvis_tilt	pelvis_list	pelvis_rotation	pelvis_tx	pelvis_ty	pelvis_tz	bb_angle	bb_tx	bb_ty	bb_tz	hip_flexion_r	hip_adduction_r	hip_rotation_r	knee_angle_r	knee_angle_r_beta	ankle_angle_r	subtalar_angle_r	mtp_angle_r	crank_angle_r	hip_flexion_l	hip_adduction_l	hip_rotation_l	knee_angle_l	knee_angle_l_beta	ankle_angle_l	subtalar_angle_l	mtp_angle_l	crank_angle_l	lumbar_extension	lumbar_bending	lumbar_rotation	arm_flex_r	arm_add_r	arm_rot_r	elbow_flex_r	pro_sup_r	wrist_flex_r	wrist_dev_r	arm_flex_l	arm_add_l	arm_rot_l	elbow_flex_l	pro_sup_l	wrist_flex_l	wrist_dev_l
      2.50500000	    -19.03224740	    -10.22851913	     -4.62020205	      0.08483413	      1.11311468	     -0.27894817	      0.00000000	      0.50000000	      0.00000000	      0.25000000	     84.24154234	      2.58256747	     -5.80222187	     84.16749056	      1.46899983	     16.86969328	    -14.45320562	      0.00000000	      0.00000000	     54.07350613	    -10.64787426	      8.27914544	     58.55068155	      1.02190217	    -14.33232604	    -18.61407900	      0.00000000	      0.00000000	    -56.81849534	      3.00304504	      3.74304952	     89.82401879	     -2.01637313	     23.80167264	     42.29520009	     21.47237922	      0.00000000	      0.00000000	     89.81326867	    -10.46646805	     28.19937503	     44.24764378	     22.31450644	      0.00000000	      0.00000000
      2.51000000	    -18.98170249	    -10.41969051	     -4.21268429	      0.08467264	      1.11247387	     -0.27815462	      0.00000000	      0.50000000	      0.00000000	      0.25000000	     83.24166526	      2.75027568	     -5.88014205	     82.04473885	      1.43195083	     16.26775323	    -15.54070730	      0.00000000	      0.00000000	     54.94426672	    -10.61013813	      8.66509118	     60.73223900	      1.05997753	    -13.07928797	    -17.87982026	      0.00000000	      0.00000000	    -56.82897743	      3.36218969	      3.54500301	     89.82403199	     -1.81599168	     23.93009576	     42.16265202	     21.35127709	      0.00000000	      0.00000000	     89.81243778	    -10.74884381	     28.20318407	     44.46438636	     22.23817811	      0.00000000	      0.00000000
      2.51500000	    -18.75417048	    -10.12806293	     -3.72165082	      0.08475300	      1.11188969	     -0.27763237	      0.00000000	      0.50000000	      0.00000000	      0.25000000	     82.20770203	      2.60398854	     -5.48074473	     80.20356787	      1.39981633	     15.93575407	    -15.66240907	      0.00000000	      0.00000000	     55.51503712	    -10.14820385	      8.55019004	     62.80372776	      1.09613183	    -12.27509462	    -18.18333396	      0.00000000	      0.00000000	    -56.92461382	      3.35587626	      3.01861273	     89.82139537	     -1.89557372	     23.90408600	     42.14339186	     21.32260143	      0.00000000	      0.00000000	     89.81586350	    -10.70632380	     28.25085995	     44.51613005	     22.21945788	      0.00000000	      0.00000000
      2.52000000	    -18.60925230	    -10.23473580	     -3.28350468	      0.08478713	      1.11103986	     -0.27668138	      0.00000000	      0.50000000	      0.00000000	      0.25000000	     81.17951727	      2.72053955	     -5.42907735	     78.21793203	      1.36516045	     14.94876911	    -16.70688272	      0.00000000	      0.00000000	     56.37068122	    -10.14769251	      8.64466977	     65.06781677	      1.13564764	    -10.78943970	    -17.44315040	      0.00000000	      0.00000000	    -56.99376524	      3.69563035	      2.79624021	     89.82196526	     -1.66760351	     24.00627865	     41.95559174	     21.17329543	      0.00000000	      0.00000000	     89.81405392	    -11.03490338	     28.39057200	     44.72030736	     22.11100603	      0.00000000	      0.00000000
      2.52500000	    -18.39072147	    -10.06159587	     -2.71047582	      0.08485916	      1.11013379	     -0.27608018	      0.00000000	      0.50000000	      0.00000000	      0.25000000	     80.15867768	      2.50562664	     -5.14783434	     76.42450863	      1.33385930	     14.13931819	    -17.03808442	      0.00000000	      0.00000000	     57.14915725	     -9.77181768	      8.70332130	     67.33926310	      1.17529186	     -9.74307247	    -17.11149716	      0.00000000	      0.00000000	    -57.07498736	      3.92670778	      2.32979164	     89.82073964	     -1.57791320	     24.04650698	     41.85125689	     21.07573017	      0.00000000	      0.00000000	     89.81554428	    -11.17324436	     28.52089496	     44.79277607	     22.01905018	      0.00000000	      0.00000000
      2.53000000	    -18.17912304	     -9.84769527	     -2.17340643	      0.08498233	      1.10920343	     -0.27528938	      0.00000000	      0.50000000	      0.00000000	      0.25000000	     79.11320415	      2.32947235	     -4.84951486	     74.59464706	      1.30192220	     13.23609427	    -17.48127529	      0.00000000	      0.00000000	     57.94674624	     -9.45449172	      8.61819839	     69.57391517	      1.21429389	     -8.71158670	    -16.77697604	      0.00000000	      0.00000000	    -57.13961966	      4.09307294	      1.85027829	     89.81940586	     -1.48729906	     24.09780139	     41.71109070	     20.97648669	      0.00000000	      0.00000000	     89.81656129	    -11.31788759	     28.66339820	     44.87351450	     21.92702906	      0.00000000	      0.00000000
      2.53500000	    -17.95690128	     -9.55399667	     -1.61801090	      0.08514662	      1.10822285	     -0.27458388	      0.00000000	      0.50000000	      0.00000000	      0.25000000	     78.04884530	      2.04476262	     -4.51635516	     72.83405362	      1.27119404	     12.31102507	    -17.73217657	      0.00000000	      0.00000000	     58.75434588	     -9.06825691	      8.47236295	     71.80174934	      1.25317693	     -7.75809113	    -16.47526644	      0.00000000	      0.00000000	    -57.20146960	      4.24044122	      1.30599208	     89.81766673	     -1.40543477	     24.15879960	     41.57583389	     20.88492747	      0.00000000	      0.00000000	     89.81743475	    -11.45904489	     28.83038688	     44.92438270	     21.83088568	      0.00000000	      0.00000000
      2.54000000	    -17.73545045	     -9.04897903	     -1.04779000	      0.08547209	      1.10737005	     -0.27380075	      0.00000000	      0.50000000	      0.00000000	      0.25000000	     76.98660838	      1.65552710	     -3.96698179	     71.15087228	      1.24181699	     11.76657778	    -17.51285846	      0.00000000	      0.00000000	     59.51442325	     -8.54213063	      8.10959385	     73.89730592	      1.28975130	     -7.43502432	    -16.62291546	      0.00000000	      0.00000000	    -57.26280522	      4.21467922	      0.69827627	     89.81501043	     -1.54132381	     24.10982094	     41.56820258	     20.87613951	      0.00000000	      0.00000000	     89.81966396	    -11.34170854	     28.89669744	     44.94612847	     21.82557986	      0.00000000	      0.00000000
      2.54500000	    -17.53418965	     -8.95417348	     -0.47578998	      0.08565038	      1.10612107	     -0.27289510	      0.00000000	      0.50000000	      0.00000000	      0.25000000	     75.95025870	      1.38718937	     -3.86395555	     69.47617254	      1.21258796	     10.16144624	    -17.97952548	      0.00000000	      0.00000000	     60.48671508	     -8.30300286	      8.21861808	     76.23056152	      1.33047429	     -6.12677310	    -15.93389273	      0.00000000	      0.00000000	    -57.30078317	      4.57295970	      0.22056826	     89.81414759	     -1.23204666	     24.28727389	     41.32996747	     20.79858648	      0.00000000	      0.00000000	     89.81992556	    -11.72852200	     29.05639540	     44.92080894	     21.74248893	      0.00000000	      0.00000000
      2.55000000	    -17.31175971	     -8.44483915	      0.06201644	      0.08603222	      1.10516001	     -0.27188499	      0.00000000	      0.50000000	      0.00000000	      0.25000000	     74.87250490	      0.96133215	     -3.40590236	     67.86312026	      1.18443489	      9.38286859	    -17.69298341	      0.00000000	      0.00000000	     61.31728814	     -7.80929409	      7.90078774	     78.36787499	      1.36777745	     -5.74686393	    -16.01381762	      0.00000000	      0.00000000	    -57.35715109	      4.47347883	     -0.41865988	     89.81021697	     -1.34215916	     24.25753499	     41.29324020	     20.78447653	      0.00000000	      0.00000000	     89.82214938	    -11.66125905	     29.14235933	     44.94354436	     21.73321496	      0.00000000	      0.00000000
      2.55500000	    -17.09327789	     -8.20806255	      0.59808132	      0.08646953	      1.10409908	     -0.27089282	      0.00000000	      0.50000000	      0.00000000	      0.25000000	     73.76286622	      0.60577642	     -3.33797570	     66.16866997	      1.15486115	      7.73164179	    -18.21940219	      0.00000000	      0.00000000	     62.27527562	     -7.51929137	      7.87198581	     80.61515096	      1.40699981	     -4.72256186	    -15.20664665	      0.00000000	      0.00000000	    -57.41503452	      4.74126465	     -1.02130796	     89.81002733	     -1.00504802	     24.50238305	     40.97665810	     20.70169448	      0.00000000	      0.00000000	     89.82040735	    -12.13610268	     29.39377083	     45.00047065	     21.65915495	      0.00000000	      0.00000000
      2.56000000	    -16.86104047	     -7.76696261	      1.09305167	      0.08705346	      1.10321246	     -0.26980733	      0.00000000	      0.50000000	      0.00000000	      0.25000000	     72.62997230	      0.16215280	     -3.14630722	     64.52497762	      1.12617331	      6.38335559	    -18.33878887	      0.00000000	      0.00000000	     63.15747156	     -7.13011645	      7.64857411	     82.76057899	      1.44444459	     -4.04864724	    -14.77350823	      0.00000000	      0.00000000	    -57.49193029	      4.70769568	     -1.72868293	     89.80808836	     -0.90186136	     24.63343231	     40.79619837	     20.65053388	      0.00000000	      0.00000000	     89.81993321	    -12.36725955	     29.61540095	     45.10121528	     21.60783152	      0.00000000	      0.00000000
      2.56500000	    -16.60603841	     -7.34172843	      1.52474357	      0.08775686	      1.10238046	     -0.26860857	      0.00000000	      0.50000000	      0.00000000	      0.25000000	     71.45738759	     -0.21781901	     -2.97294664	     62.90195759	      1.09784627	      5.01639138	    -18.44229424	      0.00000000	      0.00000000	     64.09714612	     -6.85220410	      7.42779396	     84.96491623	      1.48291754	     -3.47162359	    -14.14036266	      0.00000000	      0.00000000	    -57.62268969	      4.66852118	     -2.32594230	     89.80491143	     -0.77267207	     24.78716633	     40.61239690	     20.60673388	      0.00000000	      0.00000000	     89.81887537	    -12.61435456	     29.80511141	     45.18115548	     21.55589923	      0.00000000	      0.00000000
      2.57000000	    -16.36916403	     -6.87665887	      2.04695299	      0.08844056	      1.10170150	     -0.26758490	      0.00000000	      0.50000000	      0.00000000	      0.25000000	     70.25614186	     -0.78523424	     -3.03726264	     61.23650516	      1.06877864	      3.69164898	    -18.64551132	      0.00000000	      0.00000000	     64.99023053	     -6.38627023	      7.30690692	     87.02365194	      1.51884925	     -2.95838476	    -13.65803279	      0.00000000	      0.00000000	    -57.73114055	      4.67592225	     -3.00703766	     89.80244730	     -0.69610069	     24.91836694	     40.45519330	     20.57586037	      0.00000000	      0.00000000	     89.81886956	    -12.78790595	     29.95311921	     45.24262480	     21.51449853	      0.00000000	      0.00000000
      2.57500000	    -16.20042436	     -6.27660168	      2.48922449	      0.08919509	      1.10083425	     -0.26620949	      0.00000000	      0.50000000	      0.00000000	      0.25000000	     69.16354697	     -1.33037367	     -2.84627516	     59.74842365	      1.04280672	      2.86113977	    -18.28578364	      0.00000000	      0.00000000	     65.95962105	     -5.95750504	      6.99213700	     89.02851382	      1.55384069	     -2.76853623	    -13.55738602	      0.00000000	      0.00000000	    -57.78619155	      4.43095616	     -3.67117657	     89.79480710	     -0.81518381	     24.89320534	     40.42392732	     20.56976454	      0.00000000	      0.00000000	     89.81778477	    -12.70190870	     30.02383018	     45.25752809	     21.51006480	      0.00000000	      0.00000000
